<svg width="20" height="20" viewBox="0 0 20 20" fill="none" xmlns="http://www.w3.org/2000/svg">
<path fill-rule="evenodd" clip-rule="evenodd" d="M2.92514 2.92688C6.8263 -0.975628 13.1737 -0.975628 17.0749 2.92688C20.975 6.82644 20.975 13.1746 17.0749 17.0751C13.1737 20.9757 6.8263 20.9742 2.92514 17.0751C-0.975045 13.1746 -0.975045 6.82644 2.92514 2.92688ZM13.9292 2.34217C10.6915 0.68401 6.6186 1.2072 3.9115 3.91322C1.20441 6.6212 0.683172 10.6955 2.34139 13.9321L4.03061 13.2302L6.76921 15.9697L6.06684 17.6569C9.30255 19.317 13.3794 18.7934 16.0875 16.0878C18.7985 13.3759 19.3193 9.29227 17.6488 6.05372L15.9748 6.74868L13.2352 4.00821L13.9292 2.34217ZM14.633 9.92807L15.9319 13.2247L13.2248 15.9317L9.96397 14.6702L10.8002 10.8017L14.633 9.92807ZM6.62111 4.11038L9.83713 5.46881L9.15347 9.15525L5.45509 9.8256L4.10843 6.62248L6.62111 4.11038Z" fill="#1DA86D"/>
</svg>
