<svg width="16" height="16" viewBox="0 0 16 16" fill="none" xmlns="http://www.w3.org/2000/svg">
<path fill-rule="evenodd" clip-rule="evenodd" d="M14.2682 8.53323C14.287 8.3618 14.287 8.19037 14.287 7.9999C14.287 4.38085 11.4258 1.42847 7.90583 1.42847C4.38583 1.42847 1.52466 4.38085 1.52466 7.9999C1.52466 11.6189 4.38583 14.5713 7.90583 14.5713C11.2376 14.5523 13.9858 11.9047 14.2682 8.53323ZM13.1576 6.28561C13.0447 6.22847 12.9317 6.17132 12.8376 6.13323C12.1411 5.88561 11.3505 5.9999 10.8047 6.26656C10.6352 6.03799 10.447 5.80942 10.24 5.58085C11.1247 4.89513 11.6329 4.57132 12.0847 4.30466C12.5552 4.87609 12.9317 5.54275 13.1576 6.28561ZM13.3835 8.51418C13.327 9.27609 13.1011 9.98085 12.7811 10.6285C12.5741 9.37132 12.0847 8.19037 11.3129 7.02847C11.6329 6.89513 12.1035 6.83799 12.5364 6.99037C13.0823 7.18085 13.3647 7.69513 13.3835 8.51418ZM8.9976 4.3237C9.3176 3.94275 9.46819 3.46656 9.44936 2.99037C9.43054 2.81894 9.41172 2.66656 9.35525 2.51418C10.127 2.74275 10.8423 3.1237 11.4447 3.65704C10.9929 3.9237 10.4658 4.28561 9.6376 4.93323C9.41172 4.70466 9.20466 4.51418 8.9976 4.3237ZM8.09407 2.3237C8.37642 2.49513 8.54583 2.74275 8.56466 3.04751C8.58348 3.29513 8.48936 3.5618 8.30113 3.77132C7.56701 3.23799 6.79525 2.89513 5.94819 2.68561C6.55054 2.43799 7.20936 2.3237 7.90583 2.3237C7.96231 2.3237 8.01878 2.3237 8.09407 2.3237ZM4.70583 3.39037C5.7976 3.48561 6.70113 3.77132 7.56701 4.34275C6.73878 4.7999 5.85407 5.02847 5.00701 5.21894C4.21642 5.40942 3.46348 5.5999 2.78583 5.9618C3.16231 4.91418 3.83995 4.01894 4.70583 3.39037ZM2.44701 7.31418C3.10583 6.59037 4.08466 6.34275 5.19525 6.07609C6.17407 5.82847 7.28466 5.5618 8.31995 4.89513C8.52701 5.06656 8.73407 5.25704 8.94113 5.46656C6.32466 7.5999 4.42348 9.9237 3.40701 11.2189C2.78583 10.3047 2.40936 9.18085 2.40936 7.9618C2.39054 7.77132 2.40936 7.54275 2.44701 7.31418ZM3.97172 11.9618C4.95054 10.7047 6.87054 8.3237 9.54348 6.13323C9.75054 6.38085 9.9576 6.60942 10.127 6.85704C9.14819 8.13323 8.94113 8.93323 8.48936 11.0285C8.2823 12.038 7.84936 12.9713 7.30348 13.638C6.00466 13.4856 4.8376 12.8761 3.97172 11.9618ZM8.37642 13.638C8.80936 12.9332 9.14819 12.0951 9.33642 11.2189C9.75054 9.31418 9.91995 8.62847 10.6541 7.61894C11.5011 8.93323 11.9341 10.3047 12.0094 11.7523C11.1058 12.8189 9.82583 13.5237 8.37642 13.638Z" fill="white"/>
</svg>
