<svg width="16" height="16" viewBox="0 0 16 16" fill="none" xmlns="http://www.w3.org/2000/svg">
<path fill-rule="evenodd" clip-rule="evenodd" d="M6.79527 2.53345C9.99527 2.53345 11.3317 4.66678 11.5388 6.34297H12.0094C12.2541 6.34297 12.4423 6.53345 12.4423 6.78107C12.4423 7.02869 12.2541 7.21916 12.0094 7.21916H11.5764V9.06678C11.5764 9.29535 11.5764 9.52392 11.5953 9.73345H13.4212C14.08 9.73345 14.1364 10.2668 14.1553 10.4382V12.7049C14.1553 13.2192 13.9106 13.4477 13.4023 13.4477C12.8753 13.4477 11.2941 13.2192 10.8423 10.6477H9.44939C9.26115 12.8763 7.6235 13.0668 7.09644 13.0668C6.26821 13.0668 5.57174 12.7239 4.95056 12.0382C4.8188 11.9049 4.66821 11.6763 4.55527 11.5049C4.51762 11.4668 4.47997 11.4096 4.46115 11.3715L4.41095 11.3207L3.31292 11.3144C3.04939 11.3144 2.55997 11.2001 2.40939 10.4573C2.35292 10.2287 2.27762 10.0001 2.1835 9.7144C1.95762 9.08583 1.69409 8.30488 1.69409 7.29535C1.69409 5.00964 3.65174 2.53345 6.79527 2.53345ZM13.2517 10.6477H11.7082C11.9529 11.8096 12.48 12.4954 13.2517 12.5525V10.6477ZM6.77644 3.44773C4.1788 3.44773 2.55997 5.44773 2.55997 7.3144C2.55997 8.17154 2.78586 8.83821 2.99292 9.42869C3.08703 9.7144 3.18115 10.0001 3.23762 10.2668C3.25644 10.362 3.25644 10.4001 3.27527 10.4192H4.36703C4.68703 10.4192 4.93174 10.5525 5.1388 10.8382C5.17644 10.8763 5.21409 10.9334 5.25174 10.9906C5.34586 11.143 5.47762 11.3334 5.57174 11.4287C6.15527 12.0954 6.68233 12.1715 7.07762 12.1715C8.05645 12.1715 8.56468 11.5239 8.56468 10.2477V10.1913L8.55422 9.86749C8.54167 9.65302 8.52076 9.44138 8.50821 9.23821C8.43292 8.40011 8.37644 7.60011 8.88468 7.02869C9.24233 6.64773 9.78821 6.43821 10.6353 6.38107C10.4659 5.18107 9.50586 3.44773 6.77644 3.44773ZM6.96468 9.73345C7.45409 9.73345 7.84939 10.1334 7.84939 10.6287C7.84939 11.1239 7.45409 11.5239 6.96468 11.5239C6.47527 11.5239 6.07997 11.1239 6.07997 10.6287C6.07997 10.1334 6.47527 9.73345 6.96468 9.73345ZM10.6729 7.23821C10.0894 7.2763 9.71292 7.39059 9.52468 7.60011C9.27997 7.88583 9.31762 8.43821 9.37409 9.14297C9.39292 9.3144 9.39292 9.52392 9.41174 9.73345H10.6917C10.6729 9.52392 10.6729 9.29535 10.6729 9.06678V7.23821Z" fill="white"/>
</svg>
